<mxfile host="" modified="2020-07-07T22:50:25.670Z" agent="5.0 (Windows NT 10.0; Win64; x64) AppleWebKit/537.36 (KHTML, like Gecko) Code/1.46.1 Chrome/78.0.3904.130 Electron/7.3.1 Safari/537.36" etag="Gp4YM-CG5FYjTzzOaa9W" version="13.1.3">
    <diagram id="6hGFLwfOUW9BJ-s0fimq" name="Page-1">
        <mxGraphModel dx="1335" dy="637" grid="1" gridSize="10" guides="1" tooltips="1" connect="1" arrows="1" fold="1" page="1" pageScale="1" pageWidth="827" pageHeight="1169" math="0" shadow="0">
            <root>
                <mxCell id="0"/>
                <mxCell id="1" parent="0"/>
                <mxCell id="5" value="Offer" style="swimlane;" parent="1" vertex="1">
                    <mxGeometry x="20" y="90" width="200" height="310" as="geometry"/>
                </mxCell>
                <mxCell id="8" value="&lt;div style=&quot;color: rgb(255 , 255 , 255) ; background-color: rgb(0 , 0 , 0) ; font-family: &amp;#34;fira code retina&amp;#34; , &amp;#34;consolas&amp;#34; , &amp;#34;courier new&amp;#34; , monospace ; font-size: 13px ; line-height: 18px&quot;&gt;&lt;span style=&quot;color: #9cdcfe&quot;&gt;summary&lt;/span&gt;&lt;/div&gt;" style="text;html=1;align=center;verticalAlign=middle;resizable=0;points=[];autosize=1;" parent="5" vertex="1">
                    <mxGeometry x="65" y="80" width="70" height="20" as="geometry"/>
                </mxCell>
                <mxCell id="9" value="&lt;div style=&quot;color: rgb(255 , 255 , 255) ; background-color: rgb(0 , 0 , 0) ; font-family: &amp;#34;fira code retina&amp;#34; , &amp;#34;consolas&amp;#34; , &amp;#34;courier new&amp;#34; , monospace ; font-size: 13px ; line-height: 18px&quot;&gt;&lt;span style=&quot;color: #9cdcfe&quot;&gt;description&lt;/span&gt;&lt;/div&gt;" style="text;html=1;align=center;verticalAlign=middle;resizable=0;points=[];autosize=1;" parent="5" vertex="1">
                    <mxGeometry x="50" y="100" width="100" height="20" as="geometry"/>
                </mxCell>
                <mxCell id="12" value="&lt;div style=&quot;color: rgb(255 , 255 , 255) ; background-color: rgb(0 , 0 , 0) ; font-family: &amp;#34;fira code retina&amp;#34; , &amp;#34;consolas&amp;#34; , &amp;#34;courier new&amp;#34; , monospace ; font-size: 13px ; line-height: 18px&quot;&gt;&lt;span style=&quot;color: #9cdcfe&quot;&gt;title&lt;/span&gt;&lt;/div&gt;" style="text;html=1;align=center;verticalAlign=middle;resizable=0;points=[];autosize=1;" parent="5" vertex="1">
                    <mxGeometry x="70" y="60" width="60" height="20" as="geometry"/>
                </mxCell>
                <mxCell id="13" value="&lt;div style=&quot;color: rgb(255 , 255 , 255) ; background-color: rgb(0 , 0 , 0) ; font-family: &amp;#34;fira code retina&amp;#34; , &amp;#34;consolas&amp;#34; , &amp;#34;courier new&amp;#34; , monospace ; font-size: 13px ; line-height: 18px&quot;&gt;&lt;span style=&quot;color: #9cdcfe&quot;&gt;profession&lt;/span&gt;&lt;/div&gt;" style="text;html=1;align=center;verticalAlign=middle;resizable=0;points=[];autosize=1;" parent="5" vertex="1">
                    <mxGeometry x="50" y="120" width="100" height="20" as="geometry"/>
                </mxCell>
                <mxCell id="14" value="&lt;div style=&quot;color: rgb(255 , 255 , 255) ; background-color: rgb(0 , 0 , 0) ; font-family: &amp;#34;fira code retina&amp;#34; , &amp;#34;consolas&amp;#34; , &amp;#34;courier new&amp;#34; , monospace ; font-size: 13px ; line-height: 18px&quot;&gt;&lt;span style=&quot;color: #9cdcfe&quot;&gt;availability&lt;/span&gt;&lt;/div&gt;" style="text;html=1;align=center;verticalAlign=middle;resizable=0;points=[];autosize=1;" parent="5" vertex="1">
                    <mxGeometry x="45" y="140" width="110" height="20" as="geometry"/>
                </mxCell>
                <mxCell id="15" value="&lt;div style=&quot;color: rgb(255 , 255 , 255) ; background-color: rgb(0 , 0 , 0) ; font-family: &amp;#34;fira code retina&amp;#34; , &amp;#34;consolas&amp;#34; , &amp;#34;courier new&amp;#34; , monospace ; font-size: 13px ; line-height: 18px&quot;&gt;&lt;span style=&quot;color: #9cdcfe&quot;&gt;workplace&lt;/span&gt;&lt;/div&gt;" style="text;html=1;align=center;verticalAlign=middle;resizable=0;points=[];autosize=1;" parent="5" vertex="1">
                    <mxGeometry x="55" y="160" width="90" height="20" as="geometry"/>
                </mxCell>
                <mxCell id="16" value="&lt;div style=&quot;color: rgb(255 , 255 , 255) ; background-color: rgb(0 , 0 , 0) ; font-family: &amp;#34;fira code retina&amp;#34; , &amp;#34;consolas&amp;#34; , &amp;#34;courier new&amp;#34; , monospace ; font-size: 13px ; line-height: 18px&quot;&gt;&lt;span style=&quot;color: #9cdcfe&quot;&gt;active&lt;/span&gt;&lt;/div&gt;" style="text;html=1;align=center;verticalAlign=middle;resizable=0;points=[];autosize=1;" parent="5" vertex="1">
                    <mxGeometry x="70" y="180" width="60" height="20" as="geometry"/>
                </mxCell>
                <mxCell id="17" value="&lt;div style=&quot;color: rgb(255 , 255 , 255) ; background-color: rgb(0 , 0 , 0) ; font-family: &amp;#34;fira code retina&amp;#34; , &amp;#34;consolas&amp;#34; , &amp;#34;courier new&amp;#34; , monospace ; font-size: 13px ; line-height: 18px&quot;&gt;&lt;span style=&quot;color: #9cdcfe&quot;&gt;quota&lt;/span&gt;&lt;/div&gt;" style="text;html=1;align=center;verticalAlign=middle;resizable=0;points=[];autosize=1;" parent="5" vertex="1">
                    <mxGeometry x="70" y="200" width="60" height="20" as="geometry"/>
                </mxCell>
                <mxCell id="18" value="&lt;div style=&quot;color: rgb(255 , 255 , 255) ; background-color: rgb(0 , 0 , 0) ; font-family: &amp;#34;fira code retina&amp;#34; , &amp;#34;consolas&amp;#34; , &amp;#34;courier new&amp;#34; , monospace ; font-size: 13px ; line-height: 18px&quot;&gt;&lt;span style=&quot;color: #9cdcfe&quot;&gt;publicationdate&lt;/span&gt;&lt;/div&gt;" style="text;html=1;align=center;verticalAlign=middle;resizable=0;points=[];autosize=1;" parent="5" vertex="1">
                    <mxGeometry x="30" y="220" width="140" height="20" as="geometry"/>
                </mxCell>
                <mxCell id="61" value="&lt;!--StartFragment--&gt;&lt;span style=&quot;color: rgb(240, 240, 240); font-family: Helvetica; font-size: 12px; font-style: normal; font-variant-ligatures: normal; font-variant-caps: normal; font-weight: 400; letter-spacing: normal; orphans: 2; text-align: center; text-indent: 0px; text-transform: none; widows: 2; word-spacing: 0px; -webkit-text-stroke-width: 0px; background-color: rgb(42, 42, 42); text-decoration-style: initial; text-decoration-color: initial; float: none; display: inline !important;&quot;&gt;id&lt;/span&gt;&lt;!--EndFragment--&gt;" style="text;whiteSpace=wrap;html=1;" parent="5" vertex="1">
                    <mxGeometry x="90" y="30" width="30" height="30" as="geometry"/>
                </mxCell>
                <mxCell id="72" value="&lt;div style=&quot;color: rgb(255 , 255 , 255) ; background-color: rgb(0 , 0 , 0) ; font-family: &amp;#34;fira code retina&amp;#34; , &amp;#34;consolas&amp;#34; , &amp;#34;courier new&amp;#34; , monospace ; font-size: 13px ; line-height: 18px&quot;&gt;&lt;span style=&quot;color: #9cdcfe&quot;&gt;postulateRef&lt;/span&gt;&lt;/div&gt;" style="text;html=1;align=center;verticalAlign=middle;resizable=0;points=[];autosize=1;" parent="5" vertex="1">
                    <mxGeometry x="45" y="260" width="110" height="20" as="geometry"/>
                </mxCell>
                <mxCell id="76" value="&lt;div style=&quot;color: rgb(255 , 255 , 255) ; background-color: rgb(0 , 0 , 0) ; font-family: &amp;#34;fira code retina&amp;#34; , &amp;#34;consolas&amp;#34; , &amp;#34;courier new&amp;#34; , monospace ; font-size: 13px ; line-height: 18px&quot;&gt;&lt;span style=&quot;color: #9cdcfe&quot;&gt;categoties&lt;/span&gt;&lt;/div&gt;" style="text;html=1;align=center;verticalAlign=middle;resizable=0;points=[];autosize=1;" vertex="1" parent="5">
                    <mxGeometry x="55" y="240" width="90" height="20" as="geometry"/>
                </mxCell>
                <mxCell id="20" value="Postulant" style="swimlane;fontStyle=0" parent="1" vertex="1">
                    <mxGeometry x="320" y="90" width="200" height="220" as="geometry"/>
                </mxCell>
                <mxCell id="21" value="&lt;div style=&quot;background-color: rgb(0 , 0 , 0) ; line-height: 18px&quot;&gt;&lt;font color=&quot;#9cdcfe&quot; face=&quot;fira code retina, consolas, courier new, monospace&quot;&gt;&lt;span style=&quot;font-size: 13px&quot;&gt;experiences&lt;/span&gt;&lt;/font&gt;&lt;br&gt;&lt;/div&gt;" style="text;html=1;align=center;verticalAlign=middle;resizable=0;points=[];autosize=1;" parent="20" vertex="1">
                    <mxGeometry x="50" y="80" width="100" height="20" as="geometry"/>
                </mxCell>
                <mxCell id="22" value="&lt;div style=&quot;background-color: rgb(0 , 0 , 0) ; line-height: 18px&quot;&gt;&lt;font color=&quot;#9cdcfe&quot; face=&quot;fira code retina, consolas, courier new, monospace&quot;&gt;&lt;span style=&quot;font-size: 13px&quot;&gt;studies&lt;/span&gt;&lt;/font&gt;&lt;br&gt;&lt;/div&gt;" style="text;html=1;align=center;verticalAlign=middle;resizable=0;points=[];autosize=1;" parent="20" vertex="1">
                    <mxGeometry x="65" y="100" width="70" height="20" as="geometry"/>
                </mxCell>
                <mxCell id="23" value="&lt;div style=&quot;background-color: rgb(0 , 0 , 0) ; line-height: 18px&quot;&gt;&lt;font color=&quot;#9cdcfe&quot; face=&quot;fira code retina, consolas, courier new, monospace&quot;&gt;&lt;span style=&quot;font-size: 13px&quot;&gt;intendedsalary&lt;/span&gt;&lt;/font&gt;&lt;br&gt;&lt;/div&gt;" style="text;html=1;align=center;verticalAlign=middle;resizable=0;points=[];autosize=1;" parent="20" vertex="1">
                    <mxGeometry x="35" y="60" width="130" height="20" as="geometry"/>
                </mxCell>
                <mxCell id="59" value="id" style="text;html=1;strokeColor=none;fillColor=none;align=center;verticalAlign=middle;whiteSpace=wrap;rounded=0;" parent="20" vertex="1">
                    <mxGeometry x="80" y="30" width="40" height="20" as="geometry"/>
                </mxCell>
                <mxCell id="73" value="&lt;div style=&quot;background-color: rgb(0 , 0 , 0) ; line-height: 18px&quot;&gt;&lt;font color=&quot;#9cdcfe&quot; face=&quot;fira code retina, consolas, courier new, monospace&quot;&gt;&lt;span style=&quot;font-size: 13px&quot;&gt;emailCandidate&lt;/span&gt;&lt;/font&gt;&lt;br&gt;&lt;/div&gt;" style="text;html=1;align=center;verticalAlign=middle;resizable=0;points=[];autosize=1;" parent="20" vertex="1">
                    <mxGeometry x="35" y="120" width="130" height="20" as="geometry"/>
                </mxCell>
                <mxCell id="77" value="&lt;div style=&quot;background-color: rgb(0 , 0 , 0) ; line-height: 18px&quot;&gt;&lt;font color=&quot;#9cdcfe&quot; face=&quot;fira code retina, consolas, courier new, monospace&quot;&gt;&lt;span style=&quot;font-size: 13px&quot;&gt;state&lt;/span&gt;&lt;/font&gt;&lt;br&gt;&lt;/div&gt;" style="text;html=1;align=center;verticalAlign=middle;resizable=0;points=[];autosize=1;" vertex="1" parent="20">
                    <mxGeometry x="70" y="140" width="60" height="20" as="geometry"/>
                </mxCell>
                <mxCell id="78" value="&lt;div style=&quot;background-color: rgb(0 , 0 , 0) ; line-height: 18px&quot;&gt;&lt;font color=&quot;#9cdcfe&quot; face=&quot;fira code retina, consolas, courier new, monospace&quot;&gt;&lt;span style=&quot;font-size: 13px&quot;&gt;offerid&lt;/span&gt;&lt;/font&gt;&lt;br&gt;&lt;/div&gt;" style="text;html=1;align=center;verticalAlign=middle;resizable=0;points=[];autosize=1;" vertex="1" parent="20">
                    <mxGeometry x="65" y="160" width="70" height="20" as="geometry"/>
                </mxCell>
                <mxCell id="79" value="&lt;div style=&quot;background-color: rgb(0 , 0 , 0) ; line-height: 18px&quot;&gt;&lt;font color=&quot;#9cdcfe&quot; face=&quot;fira code retina, consolas, courier new, monospace&quot;&gt;&lt;span style=&quot;font-size: 13px&quot;&gt;candidateid&lt;/span&gt;&lt;/font&gt;&lt;br&gt;&lt;/div&gt;" style="text;html=1;align=center;verticalAlign=middle;resizable=0;points=[];autosize=1;" vertex="1" parent="20">
                    <mxGeometry x="50" y="180" width="100" height="20" as="geometry"/>
                </mxCell>
                <mxCell id="32" value="Candidate" style="swimlane;" parent="1" vertex="1">
                    <mxGeometry x="610" y="90" width="200" height="310" as="geometry"/>
                </mxCell>
                <mxCell id="33" value="&lt;div style=&quot;color: rgb(255 , 255 , 255) ; background-color: rgb(0 , 0 , 0) ; font-family: &amp;#34;fira code retina&amp;#34; , &amp;#34;consolas&amp;#34; , &amp;#34;courier new&amp;#34; , monospace ; font-size: 13px ; line-height: 18px&quot;&gt;&lt;div style=&quot;font-family: &amp;#34;fira code retina&amp;#34; , &amp;#34;consolas&amp;#34; , &amp;#34;courier new&amp;#34; , monospace ; line-height: 18px&quot;&gt;&lt;span style=&quot;color: #9cdcfe&quot;&gt;lastname&lt;/span&gt;&lt;/div&gt;&lt;/div&gt;" style="text;html=1;align=center;verticalAlign=middle;resizable=0;points=[];autosize=1;" parent="32" vertex="1">
                    <mxGeometry x="60" y="80" width="80" height="20" as="geometry"/>
                </mxCell>
                <mxCell id="34" value="&lt;div style=&quot;color: rgb(255 , 255 , 255) ; background-color: rgb(0 , 0 , 0) ; font-family: &amp;#34;fira code retina&amp;#34; , &amp;#34;consolas&amp;#34; , &amp;#34;courier new&amp;#34; , monospace ; font-size: 13px ; line-height: 18px&quot;&gt;&lt;div style=&quot;font-family: &amp;#34;fira code retina&amp;#34; , &amp;#34;consolas&amp;#34; , &amp;#34;courier new&amp;#34; , monospace ; line-height: 18px&quot;&gt;&lt;span style=&quot;color: #9cdcfe&quot;&gt;username&lt;/span&gt;&lt;/div&gt;&lt;/div&gt;" style="text;html=1;align=center;verticalAlign=middle;resizable=0;points=[];autosize=1;" parent="32" vertex="1">
                    <mxGeometry x="60" y="100" width="80" height="20" as="geometry"/>
                </mxCell>
                <mxCell id="35" value="&lt;div style=&quot;color: rgb(255 , 255 , 255) ; background-color: rgb(0 , 0 , 0) ; font-family: &amp;#34;fira code retina&amp;#34; , &amp;#34;consolas&amp;#34; , &amp;#34;courier new&amp;#34; , monospace ; font-size: 13px ; line-height: 18px&quot;&gt;&lt;div style=&quot;font-family: &amp;#34;fira code retina&amp;#34; , &amp;#34;consolas&amp;#34; , &amp;#34;courier new&amp;#34; , monospace ; line-height: 18px&quot;&gt;&lt;span style=&quot;color: #9cdcfe&quot;&gt;firstname&lt;/span&gt;&lt;/div&gt;&lt;/div&gt;" style="text;html=1;align=center;verticalAlign=middle;resizable=0;points=[];autosize=1;" parent="32" vertex="1">
                    <mxGeometry x="55" y="60" width="90" height="20" as="geometry"/>
                </mxCell>
                <mxCell id="36" value="&lt;div style=&quot;color: rgb(255 , 255 , 255) ; background-color: rgb(0 , 0 , 0) ; font-family: &amp;#34;fira code retina&amp;#34; , &amp;#34;consolas&amp;#34; , &amp;#34;courier new&amp;#34; , monospace ; font-size: 13px ; line-height: 18px&quot;&gt;&lt;div style=&quot;font-family: &amp;#34;fira code retina&amp;#34; , &amp;#34;consolas&amp;#34; , &amp;#34;courier new&amp;#34; , monospace ; line-height: 18px&quot;&gt;&lt;span style=&quot;color: #9cdcfe&quot;&gt;email&lt;/span&gt;&lt;/div&gt;&lt;/div&gt;" style="text;html=1;align=center;verticalAlign=middle;resizable=0;points=[];autosize=1;" parent="32" vertex="1">
                    <mxGeometry x="70" y="120" width="60" height="20" as="geometry"/>
                </mxCell>
                <mxCell id="37" value="&lt;div style=&quot;color: rgb(255 , 255 , 255) ; background-color: rgb(0 , 0 , 0) ; font-family: &amp;#34;fira code retina&amp;#34; , &amp;#34;consolas&amp;#34; , &amp;#34;courier new&amp;#34; , monospace ; font-size: 13px ; line-height: 18px&quot;&gt;&lt;div style=&quot;font-family: &amp;#34;fira code retina&amp;#34; , &amp;#34;consolas&amp;#34; , &amp;#34;courier new&amp;#34; , monospace ; line-height: 18px&quot;&gt;&lt;span style=&quot;color: #9cdcfe&quot;&gt;dni&lt;/span&gt;&lt;/div&gt;&lt;/div&gt;" style="text;html=1;align=center;verticalAlign=middle;resizable=0;points=[];autosize=1;" parent="32" vertex="1">
                    <mxGeometry x="80" y="140" width="40" height="20" as="geometry"/>
                </mxCell>
                <mxCell id="38" value="&lt;div style=&quot;color: rgb(255 , 255 , 255) ; background-color: rgb(0 , 0 , 0) ; font-family: &amp;#34;fira code retina&amp;#34; , &amp;#34;consolas&amp;#34; , &amp;#34;courier new&amp;#34; , monospace ; font-size: 13px ; line-height: 18px&quot;&gt;&lt;div style=&quot;font-family: &amp;#34;fira code retina&amp;#34; , &amp;#34;consolas&amp;#34; , &amp;#34;courier new&amp;#34; , monospace ; line-height: 18px&quot;&gt;&lt;span style=&quot;color: #9cdcfe&quot;&gt;password&lt;/span&gt;&lt;/div&gt;&lt;/div&gt;" style="text;html=1;align=center;verticalAlign=middle;resizable=0;points=[];autosize=1;" parent="32" vertex="1">
                    <mxGeometry x="60" y="160" width="80" height="20" as="geometry"/>
                </mxCell>
                <mxCell id="39" value="&lt;div style=&quot;color: rgb(255 , 255 , 255) ; background-color: rgb(0 , 0 , 0) ; font-family: &amp;#34;fira code retina&amp;#34; , &amp;#34;consolas&amp;#34; , &amp;#34;courier new&amp;#34; , monospace ; font-size: 13px ; line-height: 18px&quot;&gt;&lt;div style=&quot;font-family: &amp;#34;fira code retina&amp;#34; , &amp;#34;consolas&amp;#34; , &amp;#34;courier new&amp;#34; , monospace ; line-height: 18px&quot;&gt;&lt;span style=&quot;color: #9cdcfe&quot;&gt;age&lt;/span&gt;&lt;/div&gt;&lt;/div&gt;" style="text;html=1;align=center;verticalAlign=middle;resizable=0;points=[];autosize=1;" parent="32" vertex="1">
                    <mxGeometry x="80" y="180" width="40" height="20" as="geometry"/>
                </mxCell>
                <mxCell id="40" value="&lt;div style=&quot;color: rgb(255 , 255 , 255) ; background-color: rgb(0 , 0 , 0) ; font-family: &amp;#34;fira code retina&amp;#34; , &amp;#34;consolas&amp;#34; , &amp;#34;courier new&amp;#34; , monospace ; font-size: 13px ; line-height: 18px&quot;&gt;&lt;div style=&quot;font-family: &amp;#34;fira code retina&amp;#34; , &amp;#34;consolas&amp;#34; , &amp;#34;courier new&amp;#34; , monospace ; line-height: 18px&quot;&gt;&lt;span style=&quot;color: #9cdcfe&quot;&gt;profession&lt;/span&gt;&lt;/div&gt;&lt;/div&gt;" style="text;html=1;align=center;verticalAlign=middle;resizable=0;points=[];autosize=1;" parent="32" vertex="1">
                    <mxGeometry x="50" y="200" width="100" height="20" as="geometry"/>
                </mxCell>
                <mxCell id="41" value="&lt;div style=&quot;color: rgb(255 , 255 , 255) ; background-color: rgb(0 , 0 , 0) ; font-family: &amp;#34;fira code retina&amp;#34; , &amp;#34;consolas&amp;#34; , &amp;#34;courier new&amp;#34; , monospace ; font-size: 13px ; line-height: 18px&quot;&gt;&lt;span style=&quot;color: #9cdcfe&quot;&gt;publicationdate&lt;/span&gt;&lt;/div&gt;" style="text;html=1;align=center;verticalAlign=middle;resizable=0;points=[];autosize=1;" parent="32" vertex="1">
                    <mxGeometry x="30" y="220" width="140" height="20" as="geometry"/>
                </mxCell>
                <mxCell id="42" value="&lt;div style=&quot;color: rgb(255 , 255 , 255) ; background-color: rgb(0 , 0 , 0) ; font-family: &amp;#34;fira code retina&amp;#34; , &amp;#34;consolas&amp;#34; , &amp;#34;courier new&amp;#34; , monospace ; font-size: 13px ; line-height: 18px&quot;&gt;&lt;div style=&quot;font-family: &amp;#34;fira code retina&amp;#34; , &amp;#34;consolas&amp;#34; , &amp;#34;courier new&amp;#34; , monospace ; line-height: 18px&quot;&gt;&lt;span style=&quot;color: rgb(156 , 220 , 254)&quot;&gt;postulateRef&lt;/span&gt;&lt;br&gt;&lt;/div&gt;&lt;/div&gt;" style="text;html=1;align=center;verticalAlign=middle;resizable=0;points=[];autosize=1;" parent="32" vertex="1">
                    <mxGeometry x="45" y="270" width="110" height="20" as="geometry"/>
                </mxCell>
                <mxCell id="62" value="&lt;!--StartFragment--&gt;&lt;span style=&quot;color: rgb(240, 240, 240); font-family: Helvetica; font-size: 12px; font-style: normal; font-variant-ligatures: normal; font-variant-caps: normal; font-weight: 400; letter-spacing: normal; orphans: 2; text-align: center; text-indent: 0px; text-transform: none; widows: 2; word-spacing: 0px; -webkit-text-stroke-width: 0px; background-color: rgb(42, 42, 42); text-decoration-style: initial; text-decoration-color: initial; float: none; display: inline !important;&quot;&gt;id&lt;/span&gt;&lt;!--EndFragment--&gt;" style="text;whiteSpace=wrap;html=1;" parent="32" vertex="1">
                    <mxGeometry x="90" y="30" width="30" height="30" as="geometry"/>
                </mxCell>
                <mxCell id="80" value="&lt;div style=&quot;color: rgb(255 , 255 , 255) ; background-color: rgb(0 , 0 , 0) ; font-family: &amp;#34;fira code retina&amp;#34; , &amp;#34;consolas&amp;#34; , &amp;#34;courier new&amp;#34; , monospace ; font-size: 13px ; line-height: 18px&quot;&gt;&lt;span style=&quot;color: #9cdcfe&quot;&gt;role&lt;/span&gt;&lt;/div&gt;" style="text;html=1;align=center;verticalAlign=middle;resizable=0;points=[];autosize=1;" vertex="1" parent="32">
                    <mxGeometry x="75" y="240" width="50" height="20" as="geometry"/>
                </mxCell>
                <mxCell id="52" value="Admin" style="swimlane;" parent="1" vertex="1">
                    <mxGeometry x="340" y="490" width="200" height="120" as="geometry"/>
                </mxCell>
                <mxCell id="53" value="&lt;div style=&quot;background-color: rgb(0 , 0 , 0) ; line-height: 18px&quot;&gt;&lt;font color=&quot;#9cdcfe&quot; face=&quot;fira code retina, consolas, courier new, monospace&quot;&gt;&lt;span style=&quot;font-size: 13px&quot;&gt;password&lt;/span&gt;&lt;/font&gt;&lt;br&gt;&lt;/div&gt;" style="text;html=1;align=center;verticalAlign=middle;resizable=0;points=[];autosize=1;" parent="52" vertex="1">
                    <mxGeometry x="60" y="80" width="80" height="20" as="geometry"/>
                </mxCell>
                <mxCell id="55" value="&lt;div style=&quot;background-color: rgb(0 , 0 , 0) ; line-height: 18px&quot;&gt;&lt;font color=&quot;#9cdcfe&quot; face=&quot;fira code retina, consolas, courier new, monospace&quot;&gt;&lt;span style=&quot;font-size: 13px&quot;&gt;username&lt;/span&gt;&lt;/font&gt;&lt;br&gt;&lt;/div&gt;" style="text;html=1;align=center;verticalAlign=middle;resizable=0;points=[];autosize=1;" parent="52" vertex="1">
                    <mxGeometry x="60" y="60" width="80" height="20" as="geometry"/>
                </mxCell>
                <mxCell id="63" value="&lt;!--StartFragment--&gt;&lt;span style=&quot;color: rgb(240, 240, 240); font-family: Helvetica; font-size: 12px; font-style: normal; font-variant-ligatures: normal; font-variant-caps: normal; font-weight: 400; letter-spacing: normal; orphans: 2; text-align: center; text-indent: 0px; text-transform: none; widows: 2; word-spacing: 0px; -webkit-text-stroke-width: 0px; background-color: rgb(42, 42, 42); text-decoration-style: initial; text-decoration-color: initial; float: none; display: inline !important;&quot;&gt;id&lt;/span&gt;&lt;!--EndFragment--&gt;" style="text;whiteSpace=wrap;html=1;" parent="52" vertex="1">
                    <mxGeometry x="90" y="30" width="30" height="30" as="geometry"/>
                </mxCell>
                <mxCell id="81" value="" style="endArrow=classic;html=1;" edge="1" parent="1">
                    <mxGeometry width="50" height="50" relative="1" as="geometry">
                        <mxPoint x="520" y="130" as="sourcePoint"/>
                        <mxPoint x="610" y="372" as="targetPoint"/>
                        <Array as="points">
                            <mxPoint x="560" y="130"/>
                            <mxPoint x="560" y="372"/>
                        </Array>
                    </mxGeometry>
                </mxCell>
                <mxCell id="82" value="" style="endArrow=classic;html=1;" edge="1" parent="1">
                    <mxGeometry width="50" height="50" relative="1" as="geometry">
                        <mxPoint x="320" y="130" as="sourcePoint"/>
                        <mxPoint x="220" y="360" as="targetPoint"/>
                        <Array as="points">
                            <mxPoint x="270" y="130"/>
                            <mxPoint x="270" y="360"/>
                        </Array>
                    </mxGeometry>
                </mxCell>
            </root>
        </mxGraphModel>
    </diagram>
</mxfile>